
<svg  
    xmlns="http://www.w3.org/2000/svg" 
    xmlns:xlink="http://www.w3.org/1999/xlink"
    x="0"
    y="0"
    width="2200" 
    height="1700" 
    viewBox="0 0 2200 1700"
    class="diagram"
>

    <style type="text/css" media="screen">  
    <![CDATA[  
    text {
    font-family: Verdana, Georgia, sans-serif;
    font-size: 14px;
    font-weight: normal;
}

.pinlabel__leader{
    stroke-width: 2;
    fill: none;
}

.pinlabel__text{
    dominant-baseline: central;
    fill: #fff;
    font-weight: bold;
    stroke-width: 0;
    text-anchor: middle;
}
.gpsingle .pinlabel__body {
    fill: rgb(34 173 0);
}

.gpsingle .pinlabel__leader {
    stroke: rgb(34 173 0);
}

.gpsingle .swatch__body {
    fill: rgb(34 173 0);
}

.pwr .pinlabel__body{
    fill: rgb(173, 0, 0);
}
.pwr .pinlabel__leader{
    stroke: rgb(173, 0, 0);
}
.pwr .swatch__body {
    fill: rgb(173, 0, 0);
}
.comms .pinlabel__body{
    fill: rgb(182, 69, 176);
}
.comms .pinlabel__leader{
    stroke: rgb(182, 69, 176);
}
.comms .swatch__body {
    fill: rgb(182, 69, 176);
}
.gpio .pinlabel__body{
    fill: rgb(160, 133, 26);
}
.gpio .pinlabel__leader{
    stroke: rgb(160, 133, 26);
}
.gpio .swatch__body {
    fill: rgb(160, 133, 26);
}
.analog .pinlabel__body{
    fill: rgb(32, 150, 165);
}
.analog .pinlabel__leader{
    stroke: rgb(32, 150, 165);
}
.analog .swatch__body {
    fill: rgb(32, 150, 165);
}
.gnd .pinlabel__body{
    fill: rgb(0, 0, 0);
}
.gnd .pinlabel__leader{
    stroke: rgb(0, 0, 0);
}
.gnd .swatch__body {
    fill: rgb(0, 0, 0);
}
.pwm .pinlabel__body{
    fill: rgb(151, 76, 23);
}
.pwm .pinlabel__leader{
    stroke: rgb(151, 76, 23);
}
.pwm .swatch__body {
    fill: rgb(151, 76, 23);
}
.touch .pinlabel__body{
    fill: rgb(230, 87, 10);
}
.touch .pinlabel__leader{
    stroke: rgb(230, 87, 10);
}
.touch .swatch__body {
    fill: rgb(230, 87, 10);
}

.panel__inner {
    fill: #fff;
}
.panel__outer {
    fill: #333;
}

.legendentry text {
    dominant-baseline: central;
}

.h1 {
    font-size: 26px;
    font-weight: bold;
    font-style: italic;
}
.italic{
    font-style: italic;
}
.strong{
    font-weight: bold;
}

.panel--info .panel__inner{
    fill: #f4f4f4;
}
    ]]>  
</style>
<g 
        class=" panel"
    transform="
        translate(2 2) 
        scale(1 1)
    "
>
        <rect
 class="panel__outer" 
    x="-2" 
    y="-2" 
    width="1852" 
    height="1214" 
    shape-rendering="geometricPrecision"
/><rect
 class="panel__inner" 
    x="0" 
    y="0" 
    width="1848" 
    height="1210" 
    shape-rendering="geometricPrecision"
/><g 
        class="panel--main panel"
    transform="
        translate(2 2) 
        scale(1 1)
    "
>
        <rect
 class="panel__outer" 
    x="-2" 
    y="-2" 
    width="1848" 
    height="745" 
    shape-rendering="geometricPrecision"
/><rect
 class="panel__inner" 
    x="0" 
    y="0" 
    width="1844" 
    height="741" 
    shape-rendering="geometricPrecision"
/><g 
    transform="
        translate(1 1) 
        scale(1 1)
    "
>
        <image 
 
    x="0" 
    y="0" 
    href="ulx3s.png" 
    xlink:href="ulx3s.png" 
    height="742" 
    width="1372"
/>
<g 
        class="pwr pinlabel"
    transform="
        translate(100 1) 
        scale(1 1)
    "
>
        <path 
    class="pinlabel__leader" 
    d="M 0.0 0 L 0.0 13.333333333333332 A 6.666666666666667 6.666666666666667 0 0 0 6.666666666666667 20.0 L 200 20.0" 
    transform="scale(1 1) translate(0 0) " 
    shape-rendering="geometricPrecision"
/><rect
 class=" pinlabel__body" 
    x="200" 
    y="10.0" 
    width="200" 
    height="20" 
    shape-rendering="geometricPrecision"
    rx="3" 
    ry="3" 
/><text
    class="pinlabel__text"
    transform="
        translate(300.0 20) 
        scale(1 1)
    "  
>
    234.0
</text>
</g><g 
    transform="
        translate(280 145) 
        scale(1 1)
    "
>
        <g 
    transform="
        translate(0 0) 
        scale(1 1)
    "
>
        <g 
        class=" pinlabel pwr"
    transform="
        translate(0 0) 
        scale(-1 1)
    "
>
        <path 
    class="pinlabel__leader" 
    d="M 0 0.0 L 4.5 0.0 C 18.0 0.0 18.0 0.0 31.5 0.0 L 36 0.0" 
    transform="scale(1 1) translate(0 0) " 
    shape-rendering="geometricPrecision"
/><rect
 class=" pinlabel__body" 
    x="36" 
    y="-10.0" 
    width="80" 
    height="20" 
    shape-rendering="geometricPrecision"
    rx="3" 
    ry="3" 
/><text
    class="pinlabel__text"
    transform="
        translate(76.0 0) 
        scale(-1 1)
    "  
>
    2
</text>
</g>
</g><g 
    transform="
        translate(0 0) 
        scale(1 1)
    "
>
        <g 
        class=" pinlabel gnd"
    transform="
        translate(0 22.5) 
        scale(-1 1)
    "
>
        <path 
    class="pinlabel__leader" 
    d="M 0 0.0 L 4.5 0.0 C 18.0 0.0 18.0 0.0 31.5 0.0 L 36 0.0" 
    transform="scale(1 1) translate(0 0) " 
    shape-rendering="geometricPrecision"
/><rect
 class=" pinlabel__body" 
    x="36" 
    y="-10.0" 
    width="80" 
    height="20" 
    shape-rendering="geometricPrecision"
    rx="3" 
    ry="3" 
/><text
    class="pinlabel__text"
    transform="
        translate(76.0 0.0) 
        scale(-1 1)
    "  
>
    4
</text>
</g>
</g><g 
    transform="
        translate(0 0) 
        scale(1 1)
    "
>
        <g 
        class=" pinlabel gpio"
    transform="
        translate(0 45.0) 
        scale(-1 1)
    "
>
        <path 
    class="pinlabel__leader" 
    d="M 0 0.0 L 4.5 0.0 C 18.0 0.0 18.0 0.0 31.5 0.0 L 36 0.0" 
    transform="scale(1 1) translate(0 0) " 
    shape-rendering="geometricPrecision"
/><rect
 class=" pinlabel__body" 
    x="36" 
    y="-10.0" 
    width="80" 
    height="20" 
    shape-rendering="geometricPrecision"
    rx="3" 
    ry="3" 
/><text
    class="pinlabel__text"
    transform="
        translate(76.0 0.0) 
        scale(-1 1)
    "  
>
    6
</text>
</g><g 
        class=" pinlabel gpsingle"
    transform="
        translate(-116 45.0) 
        scale(-1 1)
    "
>
        <path 
    class=" pinlabel__leader" 
    d="M 0 0.0 L 6 0.0" 
    transform="scale(1 1) translate(0 0) " 
    shape-rendering="geometricPrecision"
/><rect
 class=" pinlabel__body" 
    x="6" 
    y="-10.0" 
    width="80" 
    height="20" 
    shape-rendering="geometricPrecision"
    rx="3" 
    ry="3" 
/><text
    class="pinlabel__text"
    transform="
        translate(46.0 0) 
        scale(-1 1)
    "  
>
    GP0
</text>
</g>
</g><g 
    transform="
        translate(0 0) 
        scale(1 1)
    "
>
        <g 
        class=" pinlabel gpio"
    transform="
        translate(0 67.5) 
        scale(-1 1)
    "
>
        <path 
    class="pinlabel__leader" 
    d="M 0 0.0 L 4.5 0.0 C 18.0 0.0 18.0 0.0 31.5 0.0 L 36 0.0" 
    transform="scale(1 1) translate(0 0) " 
    shape-rendering="geometricPrecision"
/><rect
 class=" pinlabel__body" 
    x="36" 
    y="-10.0" 
    width="80" 
    height="20" 
    shape-rendering="geometricPrecision"
    rx="3" 
    ry="3" 
/><text
    class="pinlabel__text"
    transform="
        translate(76.0 0.0) 
        scale(-1 1)
    "  
>
    8
</text>
</g><g 
        class=" pinlabel gpsingle"
    transform="
        translate(-116 67.5) 
        scale(-1 1)
    "
>
        <path 
    class=" pinlabel__leader" 
    d="M 0 0.0 L 6 0.0" 
    transform="scale(1 1) translate(0 0) " 
    shape-rendering="geometricPrecision"
/><rect
 class=" pinlabel__body" 
    x="6" 
    y="-10.0" 
    width="80" 
    height="20" 
    shape-rendering="geometricPrecision"
    rx="3" 
    ry="3" 
/><text
    class="pinlabel__text"
    transform="
        translate(46.0 0) 
        scale(-1 1)
    "  
>
    GP1
</text>
</g>
</g><g 
    transform="
        translate(0 0) 
        scale(1 1)
    "
>
        <g 
        class=" pinlabel gpio"
    transform="
        translate(0 90.0) 
        scale(-1 1)
    "
>
        <path 
    class="pinlabel__leader" 
    d="M 0 0.0 L 4.5 0.0 C 18.0 0.0 18.0 0.0 31.5 0.0 L 36 0.0" 
    transform="scale(1 1) translate(0 0) " 
    shape-rendering="geometricPrecision"
/><rect
 class=" pinlabel__body" 
    x="36" 
    y="-10.0" 
    width="80" 
    height="20" 
    shape-rendering="geometricPrecision"
    rx="3" 
    ry="3" 
/><text
    class="pinlabel__text"
    transform="
        translate(76.0 0.0) 
        scale(-1 1)
    "  
>
    10
</text>
</g><g 
        class=" pinlabel gpsingle"
    transform="
        translate(-116 90.0) 
        scale(-1 1)
    "
>
        <path 
    class=" pinlabel__leader" 
    d="M 0 0.0 L 6 0.0" 
    transform="scale(1 1) translate(0 0) " 
    shape-rendering="geometricPrecision"
/><rect
 class=" pinlabel__body" 
    x="6" 
    y="-10.0" 
    width="80" 
    height="20" 
    shape-rendering="geometricPrecision"
    rx="3" 
    ry="3" 
/><text
    class="pinlabel__text"
    transform="
        translate(46.0 0) 
        scale(-1 1)
    "  
>
    GP2
</text>
</g>
</g><g 
    transform="
        translate(0 0) 
        scale(1 1)
    "
>
        <g 
        class=" pinlabel gpio"
    transform="
        translate(0 112.5) 
        scale(-1 1)
    "
>
        <path 
    class="pinlabel__leader" 
    d="M 0 0.0 L 4.5 0.0 C 18.0 0.0 18.0 0.0 31.5 0.0 L 36 0.0" 
    transform="scale(1 1) translate(0 0) " 
    shape-rendering="geometricPrecision"
/><rect
 class=" pinlabel__body" 
    x="36" 
    y="-10.0" 
    width="80" 
    height="20" 
    shape-rendering="geometricPrecision"
    rx="3" 
    ry="3" 
/><text
    class="pinlabel__text"
    transform="
        translate(76.0 0.0) 
        scale(-1 1)
    "  
>
    12
</text>
</g><g 
        class=" pinlabel gpsingle"
    transform="
        translate(-116 112.5) 
        scale(-1 1)
    "
>
        <path 
    class=" pinlabel__leader" 
    d="M 0 0.0 L 6 0.0" 
    transform="scale(1 1) translate(0 0) " 
    shape-rendering="geometricPrecision"
/><rect
 class=" pinlabel__body" 
    x="6" 
    y="-10.0" 
    width="80" 
    height="20" 
    shape-rendering="geometricPrecision"
    rx="3" 
    ry="3" 
/><text
    class="pinlabel__text"
    transform="
        translate(46.0 0) 
        scale(-1 1)
    "  
>
    GP3
</text>
</g>
</g>
</g><g 
    transform="
        translate(304 145) 
        scale(1 1)
    "
>
        <g 
    transform="
        translate(0 0) 
        scale(1 1)
    "
>
        <g 
        class=" pinlabel pwr"
    transform="
        translate(0 0) 
        scale(1 1)
    "
>
        <path 
    class="pinlabel__leader" 
    d="M 0 0.0 L 4.5 0.0 C 18.0 0.0 18.0 0.0 31.5 0.0 L 36 0.0" 
    transform="scale(1 1) translate(0 0) " 
    shape-rendering="geometricPrecision"
/><rect
 class=" pinlabel__body" 
    x="36" 
    y="-10.0" 
    width="80" 
    height="20" 
    shape-rendering="geometricPrecision"
    rx="3" 
    ry="3" 
/><text
    class="pinlabel__text"
    transform="
        translate(76.0 0) 
        scale(1 1)
    "  
>
    1
</text>
</g>
</g><g 
    transform="
        translate(0 0) 
        scale(1 1)
    "
>
        <g 
        class=" pinlabel gnd"
    transform="
        translate(0 22.5) 
        scale(1 1)
    "
>
        <path 
    class="pinlabel__leader" 
    d="M 0 0.0 L 4.5 0.0 C 18.0 0.0 18.0 0.0 31.5 0.0 L 36 0.0" 
    transform="scale(1 1) translate(0 0) " 
    shape-rendering="geometricPrecision"
/><rect
 class=" pinlabel__body" 
    x="36" 
    y="-10.0" 
    width="80" 
    height="20" 
    shape-rendering="geometricPrecision"
    rx="3" 
    ry="3" 
/><text
    class="pinlabel__text"
    transform="
        translate(76.0 0.0) 
        scale(1 1)
    "  
>
    3
</text>
</g>
</g><g 
    transform="
        translate(0 0) 
        scale(1 1)
    "
>
        <g 
        class=" pinlabel gpio"
    transform="
        translate(0 45.0) 
        scale(1 1)
    "
>
        <path 
    class="pinlabel__leader" 
    d="M 0 0.0 L 4.5 0.0 C 18.0 0.0 18.0 0.0 31.5 0.0 L 36 0.0" 
    transform="scale(1 1) translate(0 0) " 
    shape-rendering="geometricPrecision"
/><rect
 class=" pinlabel__body" 
    x="36" 
    y="-10.0" 
    width="80" 
    height="20" 
    shape-rendering="geometricPrecision"
    rx="3" 
    ry="3" 
/><text
    class="pinlabel__text"
    transform="
        translate(76.0 0.0) 
        scale(1 1)
    "  
>
    5
</text>
</g><g 
        class=" pinlabel GP-s"
    transform="
        translate(116 45.0) 
        scale(1 1)
    "
>
        <path 
    class=" pinlabel__leader" 
    d="M 0 0.0 L 6 0.0" 
    transform="scale(1 1) translate(0 0) " 
    shape-rendering="geometricPrecision"
/><rect
 class=" pinlabel__body" 
    x="6" 
    y="-10.0" 
    width="80" 
    height="20" 
    shape-rendering="geometricPrecision"
    rx="3" 
    ry="3" 
/><text
    class="pinlabel__text"
    transform="
        translate(46.0 0) 
        scale(1 1)
    "  
>
    GN0
</text>
</g>
</g><g 
    transform="
        translate(0 0) 
        scale(1 1)
    "
>
        <g 
        class=" pinlabel gpio"
    transform="
        translate(0 67.5) 
        scale(1 1)
    "
>
        <path 
    class="pinlabel__leader" 
    d="M 0 0.0 L 4.5 0.0 C 18.0 0.0 18.0 0.0 31.5 0.0 L 36 0.0" 
    transform="scale(1 1) translate(0 0) " 
    shape-rendering="geometricPrecision"
/><rect
 class=" pinlabel__body" 
    x="36" 
    y="-10.0" 
    width="80" 
    height="20" 
    shape-rendering="geometricPrecision"
    rx="3" 
    ry="3" 
/><text
    class="pinlabel__text"
    transform="
        translate(76.0 0.0) 
        scale(1 1)
    "  
>
    7
</text>
</g><g 
        class=" pinlabel GP-s"
    transform="
        translate(116 67.5) 
        scale(1 1)
    "
>
        <path 
    class=" pinlabel__leader" 
    d="M 0 0.0 L 6 0.0" 
    transform="scale(1 1) translate(0 0) " 
    shape-rendering="geometricPrecision"
/><rect
 class=" pinlabel__body" 
    x="6" 
    y="-10.0" 
    width="80" 
    height="20" 
    shape-rendering="geometricPrecision"
    rx="3" 
    ry="3" 
/><text
    class="pinlabel__text"
    transform="
        translate(46.0 0) 
        scale(1 1)
    "  
>
    GN1
</text>
</g>
</g><g 
    transform="
        translate(0 0) 
        scale(1 1)
    "
>
        <g 
        class=" pinlabel gpio"
    transform="
        translate(0 90.0) 
        scale(1 1)
    "
>
        <path 
    class="pinlabel__leader" 
    d="M 0 0.0 L 4.5 0.0 C 18.0 0.0 18.0 0.0 31.5 0.0 L 36 0.0" 
    transform="scale(1 1) translate(0 0) " 
    shape-rendering="geometricPrecision"
/><rect
 class=" pinlabel__body" 
    x="36" 
    y="-10.0" 
    width="80" 
    height="20" 
    shape-rendering="geometricPrecision"
    rx="3" 
    ry="3" 
/><text
    class="pinlabel__text"
    transform="
        translate(76.0 0.0) 
        scale(1 1)
    "  
>
    9
</text>
</g><g 
        class=" pinlabel GP-s"
    transform="
        translate(116 90.0) 
        scale(1 1)
    "
>
        <path 
    class=" pinlabel__leader" 
    d="M 0 0.0 L 6 0.0" 
    transform="scale(1 1) translate(0 0) " 
    shape-rendering="geometricPrecision"
/><rect
 class=" pinlabel__body" 
    x="6" 
    y="-10.0" 
    width="80" 
    height="20" 
    shape-rendering="geometricPrecision"
    rx="3" 
    ry="3" 
/><text
    class="pinlabel__text"
    transform="
        translate(46.0 0) 
        scale(1 1)
    "  
>
    GN2
</text>
</g>
</g><g 
    transform="
        translate(0 0) 
        scale(1 1)
    "
>
        <g 
        class=" pinlabel gpio"
    transform="
        translate(0 112.5) 
        scale(1 1)
    "
>
        <path 
    class="pinlabel__leader" 
    d="M 0 0.0 L 4.5 0.0 C 18.0 0.0 18.0 0.0 31.5 0.0 L 36 0.0" 
    transform="scale(1 1) translate(0 0) " 
    shape-rendering="geometricPrecision"
/><rect
 class=" pinlabel__body" 
    x="36" 
    y="-10.0" 
    width="80" 
    height="20" 
    shape-rendering="geometricPrecision"
    rx="3" 
    ry="3" 
/><text
    class="pinlabel__text"
    transform="
        translate(76.0 0.0) 
        scale(1 1)
    "  
>
    11
</text>
</g><g 
        class=" pinlabel GP-s"
    transform="
        translate(116 112.5) 
        scale(1 1)
    "
>
        <path 
    class=" pinlabel__leader" 
    d="M 0 0.0 L 6 0.0" 
    transform="scale(1 1) translate(0 0) " 
    shape-rendering="geometricPrecision"
/><rect
 class=" pinlabel__body" 
    x="6" 
    y="-10.0" 
    width="80" 
    height="20" 
    shape-rendering="geometricPrecision"
    rx="3" 
    ry="3" 
/><text
    class="pinlabel__text"
    transform="
        translate(46.0 0) 
        scale(1 1)
    "  
>
    GN3
</text>
</g><g 
        class=" pinlabel site"
    transform="
        translate(202 112.5) 
        scale(1 1)
    "
>
        <path 
    class=" pinlabel__leader" 
    d="M 0 0.0 L 6 0.0" 
    transform="scale(1 1) translate(0 0) " 
    shape-rendering="geometricPrecision"
/><rect
 class=" pinlabel__body" 
    x="6" 
    y="-10.0" 
    width="80" 
    height="20" 
    shape-rendering="geometricPrecision"
    rx="3" 
    ry="3" 
/><text
    class="pinlabel__text"
    transform="
        translate(46.0 0) 
        scale(1 1)
    "  
>
    B11
</text>
</g>
</g>
</g>
</g>
</g><g 
        class="panel--info panel"
    transform="
        translate(2 744) 
        scale(1 1)
    "
>
        <rect
 class="panel__outer" 
    x="-2" 
    y="-2" 
    width="1848" 
    height="468" 
    shape-rendering="geometricPrecision"
/><rect
 class="panel__inner" 
    x="0" 
    y="0" 
    width="1844" 
    height="464" 
    shape-rendering="geometricPrecision"
/><g 
        class=" legend"
    transform="
        translate(340 8) 
        scale(1 1)
    "
>
        <g 
        class="gpsingle legendentry"
    transform="
        translate(0 0) 
        scale(1 1)
    "
>
        <g 
        class=" swatch"
    transform="
        translate(4.0 14.0) 
        scale(1 1)
    "
>
        <rect
 class=" swatch__body" 
    x="0" 
    y="-10.0" 
    width="20" 
    height="20" 
    shape-rendering="geometricPrecision"
/>
</g><text
    transform="
        translate(28.0 14.0) 
        scale(1 1)
    "  
>
    GP single-ended
</text>
</g><g 
        class="gnsingle legendentry"
    transform="
        translate(0 28) 
        scale(1 1)
    "
>
        <g 
        class=" swatch"
    transform="
        translate(4.0 14.0) 
        scale(1 1)
    "
>
        <rect
 class=" swatch__body" 
    x="0" 
    y="-10.0" 
    width="20" 
    height="20" 
    shape-rendering="geometricPrecision"
/>
</g><text
    transform="
        translate(28.0 14.0) 
        scale(1 1)
    "  
>
    GN single-ended
</text>
</g><g 
        class="site legendentry"
    transform="
        translate(0 56) 
        scale(1 1)
    "
>
        <g 
        class=" swatch"
    transform="
        translate(4.0 14.0) 
        scale(1 1)
    "
>
        <rect
 class=" swatch__body" 
    x="0" 
    y="-10.0" 
    width="20" 
    height="20" 
    shape-rendering="geometricPrecision"
/>
</g><text
    transform="
        translate(28.0 14.0) 
        scale(1 1)
    "  
>
    FPGA site
</text>
</g><g 
        class="analog legendentry"
    transform="
        translate(0 84) 
        scale(1 1)
    "
>
        <g 
        class=" swatch"
    transform="
        translate(4.0 14.0) 
        scale(1 1)
    "
>
        <rect
 class=" swatch__body" 
    x="0" 
    y="-10.0" 
    width="20" 
    height="20" 
    shape-rendering="geometricPrecision"
/>
</g><text
    transform="
        translate(28.0 14.0) 
        scale(1 1)
    "  
>
    Analog
</text>
</g><g 
        class="comms legendentry"
    transform="
        translate(159 0) 
        scale(1 1)
    "
>
        <g 
        class=" swatch"
    transform="
        translate(4.0 14.0) 
        scale(1 1)
    "
>
        <rect
 class=" swatch__body" 
    x="0" 
    y="-10.0" 
    width="20" 
    height="20" 
    shape-rendering="geometricPrecision"
/>
</g><text
    transform="
        translate(28.0 14.0) 
        scale(1 1)
    "  
>
    Communication
</text>
</g><g 
        class="gnd legendentry"
    transform="
        translate(159 28) 
        scale(1 1)
    "
>
        <g 
        class=" swatch"
    transform="
        translate(4.0 14.0) 
        scale(1 1)
    "
>
        <rect
 class=" swatch__body" 
    x="0" 
    y="-10.0" 
    width="20" 
    height="20" 
    shape-rendering="geometricPrecision"
/>
</g><text
    transform="
        translate(28.0 14.0) 
        scale(1 1)
    "  
>
    Ground
</text>
</g><g 
        class="gpio legendentry"
    transform="
        translate(159 56) 
        scale(1 1)
    "
>
        <g 
        class=" swatch"
    transform="
        translate(4.0 14.0) 
        scale(1 1)
    "
>
        <rect
 class=" swatch__body" 
    x="0" 
    y="-10.0" 
    width="20" 
    height="20" 
    shape-rendering="geometricPrecision"
/>
</g><text
    transform="
        translate(28.0 14.0) 
        scale(1 1)
    "  
>
    GPIO
</text>
</g><g 
        class="touch legendentry"
    transform="
        translate(159 84) 
        scale(1 1)
    "
>
        <g 
        class=" swatch"
    transform="
        translate(4.0 14.0) 
        scale(1 1)
    "
>
        <rect
 class=" swatch__body" 
    x="0" 
    y="-10.0" 
    width="20" 
    height="20" 
    shape-rendering="geometricPrecision"
/>
</g><text
    transform="
        translate(28.0 14.0) 
        scale(1 1)
    "  
>
    Touch
</text>
</g><g 
        class="pwr legendentry"
    transform="
        translate(318 0) 
        scale(1 1)
    "
>
        <g 
        class=" swatch"
    transform="
        translate(4.0 14.0) 
        scale(1 1)
    "
>
        <rect
 class=" swatch__body" 
    x="0" 
    y="-10.0" 
    width="20" 
    height="20" 
    shape-rendering="geometricPrecision"
/>
</g><text
    transform="
        translate(28.0 14.0) 
        scale(1 1)
    "  
>
    Power
</text>
</g><g 
        class="pwm legendentry"
    transform="
        translate(318 28) 
        scale(1 1)
    "
>
        <g 
        class=" swatch"
    transform="
        translate(4.0 14.0) 
        scale(1 1)
    "
>
        <rect
 class=" swatch__body" 
    x="0" 
    y="-10.0" 
    width="20" 
    height="20" 
    shape-rendering="geometricPrecision"
/>
</g><text
    transform="
        translate(28.0 14.0) 
        scale(1 1)
    "  
>
    PWM
</text>
</g>
</g>
</g>
</g>
    
</svg>